<?xml version="1.0" standalone="no"?>
<!DOCTYPE svg PUBLIC "-//W3C//DTD SVG 20010904//EN"
 "http://www.w3.org/TR/2001/REC-SVG-20010904/DTD/svg10.dtd">
<svg version="1.0" xmlns="http://www.w3.org/2000/svg"
 width="887.000000pt" height="887.000000pt" viewBox="0 0 887.000000 887.000000"
 preserveAspectRatio="xMidYMid meet">
<metadata>
Created by potrace 1.11, written by Peter Selinger 2001-2013
</metadata>
<g transform="translate(0.000000,887.000000) scale(0.100000,-0.100000)"
fill="#000000" stroke="none">
<path d="M1727 7935 l-435 -436 -28 26 c-26 24 -31 25 -174 25 l-148 0 -51
-52 -51 -51 0 -149 c0 -144 1 -150 24 -175 l25 -26 -445 -445 -444 -444 0
-210 0 -210 394 -394 394 -394 203 0 203 0 149 150 149 150 151 0 152 1 49 49
49 50 98 0 98 0 49 -50 49 -50 251 0 251 0 -100 100 -101 100 50 0 50 0 141
-141 c77 -77 141 -142 141 -143 0 -1 -14 -18 -31 -37 -139 -154 -296 -408
-402 -649 l-24 -55 -621 0 c-411 0 -623 -3 -625 -10 -3 -9 -1 -423 2 -435 0
-3 109 -5 242 -5 132 0 243 -2 247 -5 10 -7 10 -1033 0 -1040 -4 -3 -116 -5
-250 -5 l-243 0 1 -220 c1 -121 2 -222 3 -225 0 -3 281 -5 623 -5 l621 0 34
-75 c54 -119 111 -228 167 -318 28 -45 58 -93 66 -106 14 -24 7 -31 -388 -426
l-402 -402 0 -349 0 -349 351 0 351 0 400 400 c220 220 406 400 413 400 7 0
15 -4 17 -8 2 -5 44 -33 94 -64 209 -129 456 -235 681 -293 101 -25 289 -60
403 -73 85 -9 486 -9 575 1 75 8 116 14 153 23 13 2 43 7 65 10 69 9 306 71
392 102 262 96 490 222 717 399 l107 83 489 -490 490 -490 103 0 104 0 48 49
47 50 0 99 0 100 -490 490 c-269 269 -490 492 -490 495 0 4 8 14 18 24 63 63
243 327 315 463 25 47 62 124 82 170 20 47 40 94 45 105 5 11 14 37 20 58 17
53 26 46 26 -20 l-1 -58 598 0 c328 0 598 3 598 7 1 5 2 56 3 116 1 59 4 112
8 117 4 7 52 11 122 10 71 0 117 3 119 10 3 9 1 423 -2 435 0 3 -157 5 -349 5
l-348 0 1 -125 0 -125 -147 0 c-94 0 -148 3 -149 10 -1 5 -3 60 -4 120 -1 61
-3 112 -4 115 0 3 -52 5 -113 5 -62 -1 -118 0 -123 2 -11 4 -14 521 -3 539 4
6 51 10 122 9 96 -1 115 1 118 14 3 9 4 64 3 124 -1 59 1 108 4 108 15 3 277
5 287 2 6 -2 10 -47 9 -123 -1 -66 1 -121 4 -121 3 -1 161 -2 351 -3 l345 -1
-1 215 c-1 118 -2 220 -3 225 -1 6 -49 10 -123 10 l-123 0 0 125 1 125 -596 0
c-335 1 -598 -3 -601 -8 -4 -5 -5 -36 -4 -68 1 -33 1 -59 0 -57 -2 2 -18 41
-35 88 -42 110 -119 272 -170 360 -44 75 -48 95 -24 104 9 3 81 6 160 6 l144
0 0 148 0 148 100 102 100 101 -2 247 -3 248 -97 -99 -98 -98 0 50 0 51 650
650 650 650 0 100 0 100 -52 51 -51 51 -97 0 -97 0 -651 -650 -650 -650 -46 0
c-25 0 -46 2 -46 4 0 2 43 47 96 100 l97 96 -251 0 -250 0 -100 -100 -100
-100 -151 0 -151 0 0 -155 c0 -180 -2 -184 -78 -141 -171 99 -410 200 -590
250 -244 68 -420 90 -727 90 -176 0 -331 -7 -391 -18 -10 -2 -40 -7 -66 -10
-215 -29 -560 -141 -746 -243 -26 -14 -76 -41 -112 -61 -88 -48 -206 -129
-318 -219 l-92 -74 -140 139 -140 139 0 46 c0 26 2 47 5 47 2 0 47 -43 100
-97 l95 -96 0 251 0 251 -50 49 -50 49 0 100 0 100 50 51 50 51 0 149 0 149
150 151 150 151 0 199 0 199 -386 387 -386 386 -228 0 -228 0 -435 -435z"/>
</g>
</svg>
